<?xml version="1.0" standalone="no"?>
<!DOCTYPE svg PUBLIC "-//W3C//DTD SVG 20010904//EN"
 "http://www.w3.org/TR/2001/REC-SVG-20010904/DTD/svg10.dtd">
<svg version="1.0" xmlns="http://www.w3.org/2000/svg"
 width="700.000000pt" height="700.000000pt" viewBox="0 0 700.000000 700.000000"
 preserveAspectRatio="xMidYMid meet">
<metadata>
Created by potrace 1.11, written by Peter Selinger 2001-2013
</metadata>
<g transform="translate(0.000000,700.000000) scale(0.100000,-0.100000)"
fill="#000000" stroke="none">
<path d="M1963 5438 c-17 -4 -43 -23 -58 -40 -23 -28 -27 -39 -23 -80 9 -93
51 -112 243 -111 l111 1 33 -61 c18 -34 71 -137 118 -228 l85 -167 -49 -73
c-26 -41 -51 -76 -54 -79 -3 -3 -8 -10 -10 -16 -2 -6 -40 -65 -83 -132 l-80
-120 -56 28 c-90 45 -251 98 -373 121 -120 23 -330 31 -442 16 -33 -4 -75 -10
-93 -12 -18 -3 -69 -14 -113 -25 -582 -149 -1015 -631 -1104 -1229 -15 -101
-12 -340 5 -436 68 -388 266 -713 577 -946 182 -137 442 -250 633 -275 25 -3
65 -10 89 -14 50 -9 322 -6 391 5 93 14 275 66 365 105 433 185 748 552 865
1009 18 72 24 108 34 201 l3 25 178 3 c159 2 177 1 171 -14 -3 -8 -17 -52 -30
-97 -14 -45 -41 -137 -62 -203 l-37 -121 -64 -6 c-62 -6 -112 -30 -113 -54 0
-6 -5 -13 -11 -15 -17 -6 -12 -83 7 -113 34 -51 51 -54 322 -54 l251 0 30 25
c43 36 57 89 38 136 -21 51 -56 70 -135 76 -37 2 -68 6 -70 7 -3 3 5 32 58
200 16 50 43 137 61 195 36 117 -15 34 554 905 172 264 349 535 392 602 43 67
82 121 87 120 4 -2 32 -49 61 -106 l53 -104 -89 -67 c-392 -291 -613 -721
-609 -1184 1 -136 1 -132 12 -211 36 -256 149 -516 316 -725 51 -64 177 -185
242 -234 30 -22 57 -43 60 -47 11 -12 159 -97 215 -123 144 -67 282 -108 435
-131 83 -12 389 -14 420 -2 8 3 33 9 55 12 217 31 525 174 691 320 167 146
306 326 388 500 58 124 108 276 121 371 2 21 9 63 14 93 11 72 7 320 -8 401
-15 83 -52 232 -61 245 -4 6 -13 28 -20 50 -29 91 -123 259 -204 365 -204 268
-504 463 -834 544 -274 68 -591 52 -848 -42 l-80 -29 -62 121 c-63 121 -135
259 -282 542 l-79 151 292 1 c161 0 309 -4 329 -9 97 -25 111 -171 19 -208
-15 -7 -70 -13 -122 -15 -58 -2 -103 -9 -117 -17 -34 -21 -62 -85 -52 -118 25
-87 56 -103 197 -100 174 3 265 45 339 155 71 108 79 232 24 349 -42 88 -100
139 -215 186 -38 15 -871 21 -925 6 -41 -11 -66 -38 -79 -83 -14 -49 -14 -47
145 -350 35 -67 64 -126 64 -130 0 -11 -1721 -8 -1731 3 -5 6 -141 270 -167
324 -1 3 64 6 146 6 162 0 194 9 227 59 34 52 12 138 -44 165 -30 15 -824 21
-878 7z m2427 -814 c0 -4 -48 -79 -106 -168 -58 -88 -179 -272 -267 -408 -395
-604 -510 -778 -512 -776 -3 4 -198 381 -435 843 -57 110 -138 268 -181 352
-44 83 -79 154 -79 157 0 3 356 6 790 6 435 0 790 -3 790 -6z m-1742 -214 c21
-41 92 -178 157 -305 65 -126 146 -284 180 -350 186 -360 305 -593 305 -599 0
-3 -71 -5 -157 -4 -148 3 -156 4 -158 23 -17 213 -102 452 -230 651 -29 44
-61 92 -71 105 -32 39 -147 161 -179 188 -16 14 -44 40 -62 56 l-33 30 97 148
c53 81 100 144 104 140 5 -5 26 -42 47 -83z m-926 -163 c112 -23 294 -84 336
-113 6 -4 -17 -42 -117 -193 -53 -80 -98 -150 -101 -156 -3 -5 -26 -41 -51
-80 -225 -341 -394 -606 -406 -635 -19 -43 -5 -95 33 -131 l26 -24 646 -5
c423 -3 646 -8 645 -15 0 -5 -4 -35 -8 -65 -20 -157 -105 -364 -210 -512 -57
-80 -67 -91 -153 -175 -167 -164 -379 -277 -617 -329 -112 -24 -343 -28 -460
-8 -387 67 -716 304 -904 654 -43 81 -106 257 -116 330 -4 25 -11 70 -15 100
-9 61 -6 263 5 325 66 392 300 719 647 904 194 104 382 149 603 146 77 -2 175
-10 217 -18z m4039 -5 c129 -28 224 -62 336 -122 127 -68 190 -115 303 -229
237 -237 359 -537 355 -871 -2 -155 -10 -209 -46 -333 -124 -417 -448 -735
-869 -853 -121 -34 -204 -43 -355 -39 -190 4 -214 8 -380 62 -266 85 -522 291
-673 541 -58 95 -125 266 -148 377 -23 111 -31 265 -20 380 33 337 225 667
508 873 l57 42 34 -63 c33 -60 90 -168 252 -482 43 -82 108 -208 145 -280 38
-71 88 -167 111 -213 52 -99 88 -127 151 -119 49 7 85 38 100 90 11 37 10 42
-65 190 -42 84 -111 217 -153 297 -41 80 -116 224 -166 320 -50 96 -113 216
-139 267 -27 50 -49 94 -49 97 0 13 154 62 225 72 22 3 56 9 75 13 67 15 309
5 411 -17z m-3405 -319 c105 -101 189 -215 254 -342 30 -61 79 -181 85 -214 2
-10 7 -27 10 -37 7 -22 13 -50 20 -100 3 -20 7 -46 10 -58 4 -21 1 -22 -93
-22 -409 -2 -915 0 -919 3 -4 4 40 73 282 444 44 67 121 185 170 261 70 108
93 138 105 131 8 -4 42 -34 76 -66z"/>
</g>
</svg>
