<svg xmlns="http://www.w3.org/2000/svg" width="21" height="21" viewBox="0 0 21 21">
  <path d="M19.3377734,8.92628906 C18.9232812,8.60261719 18.4011328,8.47746094 17.81375,8.62429688 C17.7484766,8.640625 17.6828906,8.65609375 17.6175391,8.67210937 L17.6175391,2.9296875 C17.6175391,1.31425781 16.3032812,0 14.6878516,0 C13.2429687,0 12.0397656,1.05179687 11.8017187,2.42976562 C11.0971484,2.65890625 10.5862891,3.3215625 10.5862891,4.1015625 L10.5862891,5.2734375 C10.5862891,5.59703125 10.8486328,5.859375 11.1722266,5.859375 L13.5159766,5.859375 C13.8395703,5.859375 14.1019141,5.59703125 14.1019141,5.2734375 L14.1019141,4.1015625 C14.1019141,3.36105469 13.6414453,2.72652344 12.9919922,2.46800781 C13.1953125,1.72207031 13.8783984,1.171875 14.6878516,1.171875 C15.6571094,1.171875 16.4456641,1.96042969 16.4456641,2.9296875 L16.4456641,8.94152344 C11.7179687,9.95617187 6.73195312,10.1776953 1.93683594,9.57832031 C0.9090625,9.44984375 0.0003515625,10.2523828 0.0003515625,11.2878516 L0.0003515625,11.3401172 C0.0003515625,12.1389063 0.551210938,12.8251953 1.31066406,13.0124219 L2.06628906,16.2994531 C2.17082031,16.9874219 2.51707031,17.6163281 3.04320312,18.0726562 C3.50628906,18.4742578 4.08203125,18.7188281 4.68785156,18.7759375 L4.68785156,19.4140625 C4.68785156,19.7376563 4.95019531,20 5.27378906,20 C5.59738281,20 5.85972656,19.7376563 5.85972656,19.4140625 L5.85972656,18.7890625 L14.1409766,18.7890625 L14.1409766,19.4140625 C14.1409766,19.7376563 14.4033203,20 14.7269141,20 C15.0505078,20 15.3128516,19.7376563 15.3128516,19.4140625 L15.3128516,18.7758984 C15.9186719,18.7187891 16.494375,18.4742578 16.9575,18.0726172 C17.4836328,17.6162891 17.8298828,16.9874219 17.9344141,16.2994531 L18.9529297,11.8690234 C20.1562891,11.3578906 20.3724219,9.73414063 19.3377734,8.92628906 Z M12.9300391,4.6875 L11.7581641,4.6875 L11.7581641,4.1015625 C11.7581641,3.77847656 12.0210156,3.515625 12.3441016,3.515625 C12.6671875,3.515625 12.9300391,3.77847656 12.9300391,4.1015625 L12.9300391,4.6875 Z M8.24253906,11.0723828 C8.82535156,11.0602344 9.40804687,11.0374219 9.98984375,11.0025391 C11.3675781,10.9199219 12.7414453,10.7733984 14.1019141,10.5645312 L14.1019141,14.6875 C14.1019141,15.0105859 13.8390625,15.2734375 13.5159766,15.2734375 L12.9300391,15.2734375 L12.9300391,13.515625 C12.9300391,13.1920313 12.6676953,12.9296875 12.3441016,12.9296875 C12.0205078,12.9296875 11.7581641,13.1920313 11.7581641,13.515625 L11.7581641,15.2734375 L10.5862891,15.2734375 L10.5862891,13.515625 C10.5862891,13.1920313 10.3239453,12.9296875 10.0003516,12.9296875 C9.67675781,12.9296875 9.41441406,13.1920313 9.41441406,13.515625 L9.41441406,15.2734375 L8.82847656,15.2734375 C8.50539062,15.2734375 8.24253906,15.0105859 8.24253906,14.6875 L8.24253906,11.0723828 Z M1.65480469,11.8868359 C1.3796875,11.8524609 1.17222656,11.6174219 1.17222656,11.3401172 C1.17222656,11.3401172 1.17222656,11.2878516 1.17222656,11.2878516 C1.17222656,10.9563281 1.4615625,10.6998047 1.79152344,10.7411719 C3.53429687,10.9590234 5.30085937,11.0723047 7.07066406,11.0815625 L7.07066406,12.2539062 C5.06355469,12.2426562 3.41582031,12.1069141 1.65480469,11.8868359 Z M16.7870703,16.0595703 C16.7833984,16.0755859 16.7803906,16.0917187 16.7780859,16.1080078 C16.6551562,16.9683594 15.9070703,17.6171875 15.0379297,17.6171875 L4.96277344,17.6171875 C4.09363281,17.6171875 3.34554687,16.9683594 3.22261719,16.1079687 C3.22027344,16.0916797 3.21726562,16.0755469 3.21363281,16.0595312 L2.55,13.1726953 C4.04203125,13.3326563 5.55707031,13.4174609 7.07066406,13.4258203 L7.07066406,14.6875 C7.07066406,15.6567578 7.85921875,16.4453125 8.82847656,16.4453125 L13.5159766,16.4453125 C14.4852344,16.4453125 15.2737891,15.6567578 15.2737891,14.6875 L15.2737891,12.7069531 C16.1120312,12.5553516 16.9154297,12.3883984 17.6724219,12.2084766 L16.7870703,16.0595703 Z M18.4111719,10.8187109 C17.6717578,11.0035547 16.7827734,11.2357422 15.2738281,11.5153516 L15.2738281,10.3679687 C16.2242578,10.1959766 17.166875,9.99398437 18.0979688,9.76121094 L18.1439063,9.74972656 C18.3096094,9.70828125 18.4819531,9.74484375 18.6166406,9.84996094 C18.9763672,10.1308203 18.8573438,10.7071875 18.4111719,10.8187109 Z" transform="translate(1 1)"/>
</svg>
