<svg xmlns="http://www.w3.org/2000/svg" width="20" height="20" viewBox="0 0 20 20">
  <path d="M17.0428794 15.2527626L15.2919455 15.2527626 15.2919455.583891051C15.2919455.26155642 15.0306226.000233463035 14.7082879.000233463035 14.3859533.000233463035 14.1246304.26155642 14.1246304.583891051L14.1246304 15.2527626 12.3736965 15.2527626C10.7645914 15.2527626 9.45548638 16.5618677 9.45548638 18.1709728 9.45548638 18.4933074 9.71680934 18.7546304 10.039144 18.7546304L10.6228016 18.7546304 10.6228016 19.3382879C10.6228016 19.6606226 10.8841245 19.9219455 11.2064591 19.9219455 11.5287938 19.9219455 11.7901167 19.6606226 11.7901167 19.3382879L11.7901167 18.7546304 12.957393 18.7546304 12.957393 19.3382879C12.957393 19.6606226 13.218716 19.9219455 13.5410506 19.9219455 13.8633852 19.9219455 14.1247082 19.6606226 14.1247082 19.3382879L14.1247082 18.7546304 15.2919844 18.7546304 15.2919844 19.3382879C15.2919844 19.6606226 15.5533074 19.9219455 15.875642 19.9219455 16.1979767 19.9219455 16.4592996 19.6606226 16.4592996 19.3382879L16.4592996 18.7546304 17.6265759 18.7546304 17.6265759 19.3382879C17.6265759 19.6606226 17.8878988 19.9219455 18.2102335 19.9219455 18.5325681 19.9219455 18.7938911 19.6606226 18.7938911 19.3382879L18.7938911 18.7546304 19.3775486 18.7546304C19.6998833 18.7546304 19.9612062 18.4933074 19.9612062 18.1709728 19.9610895 16.5618677 18.6519844 15.2527626 17.0428794 15.2527626zM10.7228405 17.5873541C10.9637354 16.9079377 11.6128016 16.4200778 12.3737354 16.4200778L17.0428794 16.4200778C17.8038132 16.4200778 18.4529183 16.9079767 18.6938132 17.5873541L10.7228405 17.5873541zM6.45949416 13.5018288C6.13715953 13.5018288 5.87583658 13.7631518 5.87583658 14.0854864 5.87583658 14.729144 5.35217899 15.2527626 4.70856031 15.2527626 4.06494163 15.2527626 3.54128405 14.7291051 3.54128405 14.0854864 3.54128405 13.7631518 3.27996109 13.5018288 2.95762646 13.5018288 2.63529183 13.5018288 2.37396887 13.7631518 2.37396887 14.0854864 2.37396887 15.3727626 3.42124514 16.4200389 4.7085214 16.4200389 5.99579767 16.4200389 7.04307393 15.3727626 7.04307393 14.0854864 7.04315175 13.7631518 6.78182879 13.5018288 6.45949416 13.5018288z"/>
  <path d="M5.87583658,8.24906615 L5.87583658,0.583891051 C5.87583658,0.26155642 5.61451362,0.000233463035 5.29217899,0.000233463035 C4.96984436,0.000233463035 4.7085214,0.26155642 4.7085214,0.583891051 L4.7085214,8.4507393 C4.10284047,8.66579767 3.5618677,9.04486381 3.15268482,9.54945525 C2.90451362,9.46167315 2.64182879,9.41638132 2.37396887,9.41638132 C0.934319066,9.41638132 -0.170038911,10.7145914 0.0723735409,12.1435798 C0.0020233463,12.3464202 -0.0425680934,11.8912062 1.21459144,19.4342412 C1.26151751,19.7156809 1.50498054,19.9219455 1.79031128,19.9219455 L7.62673152,19.9219455 C7.91206226,19.9219455 8.15552529,19.7156809 8.20245136,19.4342412 C9.46225681,11.8752918 9.40891051,12.35393 9.35217899,12.16607 C9.60128405,10.0605447 7.95011673,8.24906615 5.87583658,8.24906615 Z M7.13237354,18.7546304 L2.28478599,18.7546304 L1.31202335,12.9182101 L8.10509728,12.9182101 L7.13237354,18.7546304 Z M1.20673152,11.7508949 C1.20673152,11.1072374 1.73038911,10.5836187 2.37400778,10.5836187 C2.60614786,10.5836187 2.83015564,10.6514397 3.0218677,10.7796887 C3.15610895,10.8695331 3.32151751,10.8996887 3.4788716,10.863035 C3.63614786,10.8263813 3.77124514,10.7261868 3.85198444,10.5863035 C4.26828794,9.86466926 5.04381323,9.41634241 5.87583658,9.41634241 C7.16311284,9.41634241 8.21038911,10.4636187 8.21038911,11.7508949 L1.20673152,11.7508949 Z"/>
  <circle cx="2.986" cy="2.996" r="1"/>
  <path d="M1.79035019,4.74719844 C0.824902724,4.74719844 0.0394163424,5.53264591 0.0394163424,6.4981323 C0.0394163424,7.46361868 0.824863813,8.24906615 1.79035019,8.24906615 C2.75583658,8.24906615 3.54128405,7.46357977 3.54128405,6.4981323 C3.54128405,5.53268482 2.75579767,4.74719844 1.79035019,4.74719844 Z M1.79035019,7.08175097 C1.4685214,7.08175097 1.20669261,6.81992218 1.20669261,6.49809339 C1.20669261,6.17626459 1.4685214,5.9144358 1.79035019,5.9144358 C2.11217899,5.9144358 2.37400778,6.17626459 2.37400778,6.49809339 C2.37400778,6.81996109 2.11217899,7.08175097 1.79035019,7.08175097 Z"/>
</svg>
