<svg xmlns="http://www.w3.org/2000/svg" width="20" height="20" viewBox="0 0 20 20">
  <path d="M19.6287109 8.92640625C19.2935547 8.491875 18.7870312 8.24261719 18.2390234 8.24261719L16.4301172 8.24261719C16.4375781 8.04828125 16.4413281 7.85296875 16.4413281 7.65683594 16.4413281 7.33332031 16.1790625 7.07105469 15.8555469 7.07105469L.58578125 7.07105469C.262265625 7.07101562-5.20418737e-16 7.33332031-5.20418737e-16 7.65683594-5.20418737e-16 11.1403516 1.18449219 14.3599219 3.165 16.4437891L.58578125 16.4437891C.382734375 16.4437891.194179687 16.5489062.0874609375 16.7216016-.0192578125 16.8942969-.0289453125 17.1099609.061796875 17.2915234.88375 18.9353906 2.57796875 19.9975781 4.378125 19.9975781L12.0641406 19.9975781C13.8636719 19.9975781 15.5575 18.9353906 16.3794531 17.2915234 16.4702344 17.1099219 16.4605469 16.8942969 16.3537891 16.7216016 16.2470703 16.5489063 16.0585156 16.4437891 15.8554687 16.4437891L13.27625 16.4437891C13.6283984 16.0732813 13.9553906 15.6669141 14.2550391 15.2294922 15.5036719 15.0858203 16.7266016 14.5789844 17.7273437 13.7851562 18.8204297 12.9180469 19.6062891 11.7407812 19.9401562 10.4702344 20.0821875 9.92988281 19.9686328 9.3671875 19.6287109 8.92640625zM11.1691797 11.4142187L11.1691797 12.9289844 9.99757813 12.9289844 9.99757813 11.4142187 10.5833594 10.8284375 11.1691797 11.4142187zM14.7497656 17.6075391C14.0614844 18.3631641 13.0846094 18.8259766 12.0642187 18.8259766L4.37816406 18.8259766C3.35726562 18.8259766 2.38003906 18.3631641 1.69164062 17.6075391L14.7497656 17.6075391zM11.5264453 16.44375L4.91488281 16.44375C2.72445312 14.7921875 1.3259375 11.7050781 1.18359375 8.24261719L9.99757812 8.24261719 9.99757812 9.75738281 8.99757812 10.7573828C8.88773437 10.8672266 8.82597656 11.0162109 8.82597656 11.1716016L8.82597656 13.5147656C8.82597656 13.8382812 9.08824219 14.1005469 9.41175781 14.1005469L11.7549219 14.1005469C12.0784375 14.1005469 12.3407031 13.8382812 12.3407031 13.5147656L12.3407031 11.1716016C12.3407031 11.01625 12.2789453 10.8672656 12.1691016 10.7573828L11.1691016 9.75738281 11.1691016 8.23480469 15.2576563 8.23480469C15.1310547 11.3161719 13.9464063 14.6191797 11.5264453 16.44375zM18.8070703 10.1724219C18.3483203 11.9182812 16.8513672 13.3465625 15.0457812 13.8777344 15.7055078 12.5488281 16.1508984 11.0289453 16.3394141 9.41421875L18.2389453 9.41421875C18.4880859 9.41421875 18.6353516 9.556875 18.7008984 9.64191406 18.8173437 9.7928125 18.8560156 9.98617188 18.8070703 10.1724219zM12.4191406 4.83816406C12.3366016 4.76425781 12.0283203 4.42289063 12.0283203 4.10300781 12.0283203 3.79621094 12.3197266 3.45921875 12.4191016 3.36785156 12.9174219 2.92164063 13.191875 2.35054688 13.191875 1.75984375 13.191875 1.16914063 12.9174609.598046875 12.4191016.151835938 12.178125-.063984375 11.8077734-.0435546875 11.5919141.197460938 11.3760938.438515625 11.3965234.808828125 11.6375391 1.02464844 11.8878906 1.24886719 12.0202734 1.50308594 12.0202734 1.75980469 12.0202734 2.01652344 11.8879687 2.27082031 11.6375781 2.495 11.5576172 2.56660156 10.8567578 3.2196875 10.8567578 4.10300781 10.8567578 4.98632813 11.5576562 5.63941406 11.6375781 5.71101562 11.8787109 5.92691406 12.2490234 5.90632812 12.4647656 5.66535156 12.6805469 5.42433594 12.6601562 5.05398437 12.4191406 4.83816406zM8.904375 4.83816406C8.82183594 4.76425781 8.51355469 4.42289063 8.51355469 4.10300781 8.51355469 3.79621094 8.80496094 3.45921875 8.90433594 3.36785156 9.40265625 2.92164063 9.67710937 2.35054688 9.67710937 1.75984375 9.67710937 1.16914063 9.40269531.598046875 8.90433594.151835938 8.66332031-.063984375 8.29300781-.0435546875 8.07714844.197460938 7.86132812.438515625 7.88175781.808828125 8.12277344 1.02464844 8.373125 1.24886719 8.50550781 1.50308594 8.50550781 1.75980469 8.50550781 2.01652344 8.37320312 2.27082031 8.1228125 2.495 8.04289063 2.56660156 7.34199219 3.2196875 7.34199219 4.10300781 7.34199219 4.98632813 8.04289063 5.63941406 8.1228125 5.71101562 8.36394531 5.92691406 8.73425781 5.90632812 8.95 5.66535156 9.16578125 5.42433594 9.14535156 5.05398437 8.904375 4.83816406zM5.38960938 4.83816406C5.30707031 4.76425781 4.99878906 4.42289063 4.99878906 4.10300781 4.99878906 3.79621094 5.29019531 3.45921875 5.38957031 3.36785156 5.88789062 2.92164063 6.16234375 2.35054688 6.16234375 1.75984375 6.16234375 1.16914063 5.88792969.598046875 5.38957031.151835938 5.14855469-.063984375 4.77820312-.0435546875 4.56238281.197460938 4.3465625.438515625 4.36699219.808828125 4.60800781 1.02464844 4.85835937 1.24886719 4.99074219 1.50308594 4.99074219 1.75980469 4.99074219 2.01652344 4.8584375 2.27082031 4.60804687 2.495 4.52808594 2.56660156 3.82722656 3.2196875 3.82722656 4.10300781 3.82722656 4.98632813 4.528125 5.63941406 4.60804687 5.71101562 4.84914062 5.92691406 5.21949219 5.90632812 5.43523437 5.66535156 5.65101562 5.42433594 5.63058594 5.05398437 5.38960938 4.83816406z"/>
</svg>
