<svg xmlns="http://www.w3.org/2000/svg" width="20" height="20" viewBox="0 0 20 20">
  <path d="M18.4195313,3.03035156 L16.545625,1.15644531 C15.7999219,0.410703125 14.8083594,0 13.7537109,0 C12.6990234,0 11.7075,0.410703125 10.9617578,1.15644531 L10.7451563,1.37304687 C10.6339063,1.48429687 10.5302734,1.60113281 10.4341797,1.72273437 C9.38648438,1.72398437 8.33917969,2.12296875 7.54113281,2.91976562 L6.24082031,4.19402344 C5.10351562,3.43875 3.5509375,3.56183594 2.54917969,4.56355469 L0.891914062,6.22082031 C-0.250390625,7.36308594 -0.250390625,9.22175781 0.891914062,10.3640234 C1.46304687,10.9351562 2.21328125,11.2207422 2.96351562,11.2207422 C3.71375,11.2207422 4.46398437,10.9351563 5.03511719,10.3640234 L6.69242187,8.70671875 C7.69152344,7.70761719 7.81671875,6.16054687 7.06808594,5.0240625 L8.36332031,3.75480469 C8.36472656,3.7534375 8.36613281,3.75203125 8.36753906,3.75066406 C8.768125,3.35007813 9.256875,3.09054687 9.771875,2.9709375 C9.65144531,3.3521875 9.58871094,3.75375 9.58871094,4.165 C9.58871094,5.07417969 9.89394531,5.93648438 10.4559375,6.63484375 L5.72679688,11.3746484 C5.52730469,11.4727734 5.7734375,11.3278906 0.598984375,16.5140625 C-0.08796875,17.2010156 -0.0880859375,18.3129297 0.598984375,18.9999609 C1.28429688,19.6853516 2.39953125,19.6853125 3.08488281,18.9999609 L3.49921875,18.585625 L4.74195313,19.8283594 C4.97101563,20.0574219 5.34195313,20.0569531 5.57058594,19.8283594 L7.22789063,18.1711328 C7.4565625,17.9424609 7.45667969,17.5712891 7.22789063,17.3425 L5.97824219,16.0928516 L6.82078125,15.2215625 L8.05660156,16.4573828 C8.28539062,16.6861719 8.65636719,16.6861719 8.88523437,16.4573828 L10.5425391,14.8001563 C10.7712109,14.5714844 10.7713281,14.2003125 10.5425391,13.9715234 L9.30089844,12.7298828 L12.9402344,9.119375 C14.4787109,10.3581641 16.7527344,10.2810547 18.2028906,8.83085937 L18.4194922,8.61425781 C19.9590234,7.07472656 19.9590234,4.56984375 18.4195313,3.03035156 Z M5.86378906,7.878125 L4.20648438,9.53542969 C3.52109375,10.2207812 2.4059375,10.2207812 1.72054688,9.53542969 C1.03519531,8.85003906 1.03519531,7.73488281 1.72054688,7.04949219 L3.3778125,5.39222656 C3.72050781,5.04957031 4.170625,4.87820312 4.62078125,4.87820312 C5.07089844,4.87820312 5.52105469,5.04957031 5.86375,5.39222656 C6.54914063,6.07757812 6.54914063,7.19277344 5.86378906,7.878125 Z M17.5908984,7.78558594 L17.3742969,8.0021875 C16.2891797,9.08726563 14.5329688,9.08746094 13.4476172,8.00210938 C13.1594141,7.71402344 12.6905859,7.71402344 12.4041016,8.00050781 L8.16511719,12.2059375 C7.87625,12.4947266 7.87609375,12.9623437 8.16507813,13.2512109 L9.29960938,14.3857422 L8.4709375,15.214375 L7.228125,13.9715625 C6.99429688,13.7376953 6.61804688,13.7454297 6.39257813,13.9785547 L4.7353125,15.6923828 C4.51304687,15.9222656 4.51609375,16.2879297 4.74222656,16.5140234 L5.98496094,17.7567969 L5.15632813,18.5853906 L3.91359375,17.3426563 C3.68484375,17.1138672 3.31386719,17.1137891 3.08496094,17.3426563 L2.25625,18.1713281 C2.02777344,18.3997656 1.65605469,18.3997656 1.42761719,18.1713281 C1.19941406,17.943125 1.19761719,17.5726953 1.42808594,17.3422266 C7.98832031,10.7671875 5.28230469,13.4792969 11.5738281,7.17355469 C11.8619922,6.88539063 11.8619922,6.41648438 11.5738281,6.12832031 C11.0494141,5.60390625 10.7605859,4.90667969 10.7605859,4.165 C10.7605859,3.73910156 10.8562891,3.32804688 11.0367188,2.95574219 C11.4173828,3.03449219 11.7850391,3.18949219 12.1155859,3.42042969 C11.7991016,4.025625 11.8946875,4.79191406 12.4025,5.29976563 L14.0598047,6.95707031 C14.8048438,7.70207031 16.0171094,7.70207031 16.7621875,6.95707031 C17.389375,6.32988281 17.3894141,5.31484375 16.7621875,4.68761719 L14.8884375,2.81386719 C14.3567188,2.28214844 13.5480469,2.20304688 12.9353125,2.56761719 C12.5902734,2.30261719 12.2124219,2.1 11.8171875,1.9596875 C12.9018359,0.90328125 14.6432031,0.911367188 15.7170313,1.98511719 L17.5909375,3.85902344 C18.6734766,4.9415625 18.6734766,6.70300781 17.5908984,7.78558594 Z M13.2311328,3.85894531 L13.4476562,3.64246094 C13.6168359,3.47328125 13.890625,3.47328125 14.0598047,3.64246094 L15.9335547,5.51621094 C16.1027344,5.68542969 16.1027344,5.95921875 15.9335547,6.12839844 C15.6454297,6.41652344 15.1766016,6.41652344 14.8884375,6.12839844 L13.2311328,4.47109375 C13.0623828,4.30230469 13.0623828,4.02769531 13.2311328,3.85894531 Z"/>
</svg>
