<svg xmlns="http://www.w3.org/2000/svg" width="20" height="20" viewBox="0 0 20 20">
  <path d="M17.4726562,6.36328125 L13.78125,6.36328125 L13.78125,2.109375 C13.78125,0.946265625 12.8349844,0 11.671875,0 L11.6718398,0 L11.6718047,0 L2.63671875,0 C1.18283203,0 0,1.18283203 0,2.63671875 L0,11.1445312 C0,11.4357656 0.236109375,11.671875 0.52734375,11.671875 L2.109375,11.671875 L2.109375,15.3632812 C2.109375,16.817168 3.29220703,18 4.74609375,18 L15.3632812,18 C16.817168,18 18,16.817168 18,15.3632812 L18,6.890625 C18,6.59939062 17.7638906,6.36328125 17.4726562,6.36328125 Z M1.0546875,2.63671875 C1.0546875,1.76438672 1.76438672,1.04765625 2.63671875,1.04765625 L9.84628125,1.04765625 C9.66617578,1.35819141 9.5625,1.72529297 9.5625,2.109375 L9.5625,5.30859375 L1.0546875,5.30859375 L1.0546875,2.63671875 Z M1.0546875,6.36328125 L9.5625,6.36328125 L9.5625,7.41796875 L1.0546875,7.41796875 L1.0546875,6.36328125 Z M1.0546875,10.6171875 L1.0546875,8.47265625 L9.5625,8.47265625 L9.5625,10.6171875 L1.0546875,10.6171875 Z M4.74609375,16.9453125 C3.87376172,16.9453125 3.1640625,16.2356133 3.1640625,15.3632812 L3.1640625,11.671875 L10.0898438,11.671875 C10.3810781,11.671875 10.6171875,11.4357656 10.6171875,11.1445312 L10.6171875,2.109375 C10.6171875,1.52782031 11.0903203,1.0546875 11.671875,1.0546875 C12.2534297,1.0546875 12.7265625,1.52782031 12.7265625,2.109375 L12.7265625,6.890625 L12.7265625,14.8359375 L12.7265625,15.3632812 C12.7265625,15.9564023 12.923543,16.5043125 13.2553477,16.9453125 L4.74609375,16.9453125 Z M16.9453125,15.3632812 C16.9453125,16.2356133 16.2356133,16.9453125 15.3632812,16.9453125 C14.4909492,16.9453125 13.78125,16.2356133 13.78125,15.3632812 L13.78125,14.8359375 L13.78125,12.7265625 L16.9453125,12.7265625 L16.9453125,15.3632812 Z M16.9453125,11.671875 L13.78125,11.671875 L13.78125,10.6171875 L16.9453125,10.6171875 L16.9453125,11.671875 Z M16.9453125,9.5625 L13.78125,9.5625 L13.78125,7.41796875 L16.9453125,7.41796875 L16.9453125,9.5625 Z" transform="translate(1 1)"/>
</svg>
