<svg xmlns="http://www.w3.org/2000/svg" width="20" height="20" viewBox="0 0 20 20">
  <g transform="translate(2)">
    <path d="M13.2692308,0 L1.73076923,0 C0.776423077,0 0,0.776423077 0,1.73076923 L0,17.9615385 C0,18.9158846 0.776423077,19.6923077 1.73076923,19.6923077 L13.2692308,19.6923077 C14.2235769,19.6923077 15,18.9158846 15,17.9615385 L15,1.73076923 C15,0.776423077 14.2235769,0 13.2692308,0 Z M13.8461538,17.9615385 C13.8461538,18.2796538 13.5873462,18.5384615 13.2692308,18.5384615 L1.73076923,18.5384615 C1.41265385,18.5384615 1.15384615,18.2796538 1.15384615,17.9615385 L1.15384615,5.80769231 L13.8461538,5.80769231 L13.8461538,17.9615385 Z M13.8461538,4.65384615 L1.15384615,4.65384615 L1.15384615,1.73076923 C1.15384615,1.41265385 1.41265385,1.15384615 1.73076923,1.15384615 L13.2692308,1.15384615 C13.5873462,1.15384615 13.8461538,1.41265385 13.8461538,1.73076923 L13.8461538,4.65384615 Z"/>
    <circle cx="12.143" cy="2.885" r="1"/>
    <circle cx="9.836" cy="2.885" r="1"/>
    <path d="M5.76923077 2.30769231L2.88461538 2.30769231C2.566 2.30769231 2.30769231 2.566 2.30769231 2.88461538 2.30769231 3.20323077 2.566 3.46153846 2.88461538 3.46153846L5.76923077 3.46153846C6.08784615 3.46153846 6.34615385 3.20323077 6.34615385 2.88461538 6.34615385 2.566 6.08784615 2.30769231 5.76923077 2.30769231zM7.5 6.96153846C4.63396154 6.96153846 2.30769231 9.29465385 2.30769231 12.1538462 2.30769231 15.0168846 4.63696154 17.3461538 7.5 17.3461538 10.3630385 17.3461538 12.6923077 15.0168846 12.6923077 12.1538462 12.6923077 9.2995 10.3708077 6.96153846 7.5 6.96153846zM7.5 8.11538462C9.506 8.11538462 11.1748077 9.58565385 11.4861154 11.5051154 11.3241538 11.5516154 11.1461154 11.5769231 10.9615385 11.5769231 10.2571923 11.5769231 9.80769231 11.2352308 9.80769231 11 9.80769231 10.6813846 9.54938462 10.4230769 9.23076923 10.4230769 8.91215385 10.4230769 8.65384615 10.6813846 8.65384615 11 8.65384615 11.2352308 8.20434615 11.5769231 7.5 11.5769231 6.79565385 11.5769231 6.34615385 11.2352308 6.34615385 11 6.34615385 10.6813846 6.08784615 10.4230769 5.76923077 10.4230769 5.45061538 10.4230769 5.19230769 10.6813846 5.19230769 11 5.19230769 11.2352308 4.74280769 11.5769231 4.03846154 11.5769231 3.85388462 11.5769231 3.67584615 11.5516154 3.51388462 11.5051154 3.82519231 9.58565385 5.494 8.11538462 7.5 8.11538462zM7.5 16.1923077C5.45257692 16.1923077 3.75626923 14.6607308 3.49623077 12.6831538 3.67273077 12.7143077 3.85473077 12.7307692 4.03846154 12.7307692 4.73461538 12.7307692 5.34953846 12.5108077 5.76923077 12.1563846 6.18892308 12.5108077 6.80384615 12.7307692 7.5 12.7307692 8.19615385 12.7307692 8.81107692 12.5108077 9.23076923 12.1563846 9.65046154 12.5108077 10.2653846 12.7307692 10.9615385 12.7307692 11.1452692 12.7307692 11.3272692 12.7143077 11.5037692 12.6831538 11.2437308 14.6607308 9.54742308 16.1923077 7.5 16.1923077z"/>
  </g>
</svg>
