<svg xmlns="http://www.w3.org/2000/svg" width="20" height="20" viewBox="0 0 20 20">
  <g transform="translate(0 2)">
    <path d="M11.8290058 11.7509942C10.8097466 10.7316959 9.15130604 10.7316959 8.13204678 11.7509942 7.11278752 12.7702534 7.11278752 14.428694 8.13204678 15.4479532 8.64167641 15.9575828 9.31107212 16.2123977 9.98050682 16.2123977 10.6499415 16.2123977 11.3193762 15.9575828 11.8289669 15.4479532 12.8482651 14.428694 12.8482651 12.7702534 11.8290058 11.7509942zM10.9757895 14.5946589C10.4269786 15.1434308 9.53407407 15.1434308 8.98534113 14.5946589 8.4365692 14.0458869 8.4365692 13.1529825 8.98534113 12.6042105 9.2597271 12.3298635 9.62015595 12.1926706 9.9805848 12.1926706 10.3410136 12.1926706 10.7014035 12.3298635 10.9758285 12.6042105 11.5245224 13.1529825 11.5245224 14.045848 10.9757895 14.5946589zM16.0214035 7.82982456C12.6904873 4.4988694 7.27060429 4.4988694 3.93964912 7.82982456 3.82651072 7.94296296 3.76292398 8.09637427 3.76292398 8.25641326 3.76292398 8.41641326 3.82651072 8.56986355 3.93964912 8.68300195L5.7805848 10.5239376C5.8937232 10.637076 6.04717349 10.7006628 6.20717349 10.7006628 6.36721248 10.7006628 6.52066277 10.637076 6.63380117 10.5239376 7.52608187 9.63161793 8.71461988 9.14019493 9.98046784 9.14019493 11.2463158 9.14019493 12.4348538 9.63157895 13.3271735 10.5239376 13.4403509 10.637076 13.5937622 10.7006628 13.7538012 10.7006628 13.9138012 10.7006628 14.0672904 10.637076 14.1803899 10.5239376L16.0213255 8.68300195C16.1344639 8.56986355 16.1980507 8.41641326 16.1980507 8.25641326 16.1981287 8.09641326 16.1345419 7.94296296 16.0214035 7.82982456zM13.7325146 9.26545809C12.6767641 8.40269006 11.3653411 7.93356725 9.98054581 7.93356725 8.5957115 7.93356725 7.2842885 8.40269006 6.22853801 9.26545809L5.23688109 8.27380117C7.96397661 5.95922027 11.997076 5.95922027 14.7241715 8.27380117L13.7325146 9.26545809z"/>
    <path d="M19.7843275,4.0668616 C17.165653,1.44818713 13.6839376,0.00600389864 9.98050682,0.00600389864 C6.27711501,0.00600389864 2.79539961,1.44818713 0.176725146,4.06690058 C-0.0589083821,4.30253411 -0.0589083821,4.68452242 0.176725146,4.92015595 L2.01769981,6.76109162 C2.25333333,6.99672515 2.63536062,6.99672515 2.87095517,6.76109162 C6.79122807,2.8408577 13.1699415,2.8408577 17.0901754,6.76109162 C17.2079532,6.87894737 17.3623782,6.93781676 17.5167641,6.93781676 C17.6711501,6.93781676 17.8255361,6.87890838 17.9433528,6.76109162 L19.7842885,4.92015595 C20.019961,4.68448343 20.019961,4.30249513 19.7843275,4.0668616 Z M17.5054971,5.49247563 C13.2386745,1.65551657 6.72253411,1.65551657 2.45563353,5.49247563 L1.46654971,4.50339181 C3.80105263,2.37672515 6.80128655,1.21267057 9.98054581,1.21267057 C13.1598051,1.21267057 16.16,2.37672515 18.4945419,4.50339181 L17.5054971,5.49247563 Z"/>
  </g>
</svg>
